<?xml version="1.0" encoding="UTF-8" standalone="no"?>
<svg
   xmlns:dc="http://purl.org/dc/elements/1.1/"
   xmlns:cc="http://creativecommons.org/ns#"
   xmlns:rdf="http://www.w3.org/1999/02/22-rdf-syntax-ns#"
   xmlns:svg="http://www.w3.org/2000/svg"
   xmlns="http://www.w3.org/2000/svg"
   version="1.1"
   id="svg3524"
   viewBox="0 0 578.05669 551.55324"
   height="155.66058mm"
   width="163.14044mm">
  <defs
     id="defs3526" />
  <metadata
     id="metadata3529">
    <rdf:RDF>
      <cc:Work
         rdf:about="">
        <dc:format>image/svg+xml</dc:format>
        <dc:type
           rdf:resource="http://purl.org/dc/dcmitype/StillImage" />
        <dc:title></dc:title>
      </cc:Work>
    </rdf:RDF>
  </metadata>
  <g
     transform="translate(-245.46083,-529.06475)"
     id="layer1">
    <g
       id="g3681"
       transform="matrix(7.0566155,0,0,-6.7331573,823.5176,804.84138)">
      <path
         d="m 0,0 c 0,-22.62 -18.338,-40.958 -40.958,-40.958 -22.621,0 -40.959,18.338 -40.959,40.958 0,22.621 18.338,40.958 40.959,40.958 C -18.338,40.958 0,22.621 0,0"
         style="fill:#d65400;fill-opacity:1;fill-rule:nonzero;stroke:none"
         id="path3683" />
    </g>
    <g
       id="g3685"
       transform="matrix(7.0566155,0,0,-6.7331573,333.55064,888.11303)">
      <path
         d="m 0,0 4.496,24.577 9.355,-9.354 5.192,9.354 13.035,-13.035 7.952,0.173 0,22.221 L 68.802,5.164 C 65.405,-13.985 48.702,-28.535 28.591,-28.59 L 0,0 Z"
         style="fill:#a13d00;fill-opacity:1;fill-rule:nonzero;stroke:none"
         id="path3687" />
    </g>
    <g
       id="g3689"
       transform="matrix(7.0566155,0,0,-6.7331573,398.40795,882.90898)">
      <path
         d="m 0,0 c 0,-1.183 0.959,-2.143 2.142,-2.143 l 6.877,0 c 1.183,0 2.143,0.96 2.143,2.143 l 0,21.603 c 0,1.184 -0.96,2.143 -2.143,2.143 l -6.877,0 C 0.959,23.746 0,22.787 0,21.603 L 0,0 Z"
         style="fill:#3d3d3b;fill-opacity:1;fill-rule:nonzero;stroke:none"
         id="path3691" />
    </g>
    <g
       id="g3693"
       transform="matrix(7.0566155,0,0,-6.7331573,334.41014,882.90898)">
      <path
         d="m 0,0 c 0,-1.183 0.96,-2.143 2.143,-2.143 l 1.402,0 c 1.183,0 2.143,0.96 2.143,2.143 l 0,21.603 c 0,1.184 -0.96,2.143 -2.143,2.143 l -1.402,0 C 0.96,23.746 0,22.787 0,21.603 L 0,0 Z"
         style="fill:#3d3d3b;fill-opacity:1;fill-rule:nonzero;stroke:none"
         id="path3695" />
    </g>
    <g
       id="g3697"
       transform="matrix(7.0566155,0,0,-6.7331573,757.582,809.23275)">
      <path
         d="m 0,0 c 0,-0.55 -0.215,-1.05 -0.565,-1.42 l -18.702,-20.011 c -0.361,-0.374 -0.86,-0.613 -1.42,-0.613 -1.095,0 -1.984,0.889 -1.984,1.985 l -0.001,0 0,6.974 -11.538,0 c -1.183,0 -2.143,0.959 -2.143,2.143 l 0,21.884 c 0,1.184 0.96,2.143 2.143,2.143 l 11.538,0 0,6.975 0.001,0 c 0,1.096 0.889,1.984 1.984,1.984 0.56,0 1.059,-0.239 1.42,-0.613 L -0.565,1.42 C -0.215,1.05 0,0.55 0,0"
         style="fill:#3d3d3b;fill-opacity:1;fill-rule:nonzero;stroke:none"
         id="path3699" />
    </g>
    <g
       id="g3701"
       transform="matrix(7.0566155,0,0,-6.7331573,393.80565,878.51693)">
      <path
         d="m 0,0 c 0,-1.183 0.959,-2.142 2.142,-2.142 l 6.877,0 c 1.183,0 2.143,0.959 2.143,2.142 l 0,21.603 c 0,1.184 -0.96,2.143 -2.143,2.143 l -6.877,0 C 0.959,23.746 0,22.787 0,21.603 L 0,0 Z"
         style="fill:#ffffff;fill-opacity:1;fill-rule:nonzero;stroke:none"
         id="path3703" />
    </g>
    <g
       id="g3705"
       transform="matrix(7.0566155,0,0,-6.7331573,329.80784,878.51693)">
      <path
         d="m 0,0 c 0,-1.183 0.96,-2.142 2.143,-2.142 l 1.402,0 c 1.183,0 2.143,0.959 2.143,2.142 l 0,21.603 c 0,1.184 -0.96,2.143 -2.143,2.143 l -1.402,0 C 0.96,23.746 0,22.787 0,21.603 L 0,0 Z"
         style="fill:#ffffff;fill-opacity:1;fill-rule:nonzero;stroke:none"
         id="path3707" />
    </g>
    <g
       id="g3709"
       transform="matrix(7.0566155,0,0,-6.7331573,752.9789,804.84138)">
      <path
         d="m 0,0 c 0,-0.55 -0.215,-1.05 -0.565,-1.42 l -18.702,-20.011 c -0.361,-0.373 -0.86,-0.613 -1.42,-0.613 -1.096,0 -1.984,0.889 -1.984,1.985 l -0.001,0 0,6.975 -11.538,0 c -1.183,0 -2.143,0.958 -2.143,2.142 l 0,21.885 c 0,1.183 0.96,2.142 2.143,2.142 l 11.538,0 0,6.975 0.001,0 c 0,1.096 0.888,1.984 1.984,1.984 0.56,0 1.059,-0.239 1.42,-0.613 L -0.565,1.421 C -0.215,1.05 0,0.55 0,0"
         style="fill:#ffffff;fill-opacity:1;fill-rule:nonzero;stroke:none"
         id="path3711" />
    </g>
  </g>
</svg>
