<?xml version="1.0" encoding="UTF-8" standalone="no"?>
<svg
   xmlns:dc="http://purl.org/dc/elements/1.1/"
   xmlns:cc="http://creativecommons.org/ns#"
   xmlns:rdf="http://www.w3.org/1999/02/22-rdf-syntax-ns#"
   xmlns:svg="http://www.w3.org/2000/svg"
   xmlns="http://www.w3.org/2000/svg"
   version="1.1"
   id="svg3524"
   viewBox="0 0 578.05668 551.55323"
   height="155.66058mm"
   width="163.14044mm">
  <defs
     id="defs3526" />
  <metadata
     id="metadata3529">
    <rdf:RDF>
      <cc:Work
         rdf:about="">
        <dc:format>image/svg+xml</dc:format>
        <dc:type
           rdf:resource="http://purl.org/dc/dcmitype/StillImage" />
        <dc:title></dc:title>
      </cc:Work>
    </rdf:RDF>
  </metadata>
  <g
     transform="translate(-292.58421,-518.82112)"
     id="layer1">
    <g
       id="g3597"
       transform="matrix(7.0566147,0,0,-6.7331565,870.64092,794.59774)">
      <path
         d="m 0,0 c 0,-22.62 -18.338,-40.958 -40.958,-40.958 -22.621,0 -40.959,18.338 -40.959,40.958 0,22.621 18.338,40.958 40.959,40.958 C -18.338,40.958 0,22.621 0,0"
         style="fill:#636363;fill-opacity:1;fill-rule:nonzero;stroke:none"
         id="path3599" />
    </g>
    <g
       id="g3601"
       transform="matrix(7.0566147,0,0,-6.7331565,380.67402,877.86874)">
      <path
         d="m 0,0 4.496,24.577 9.355,-9.354 5.192,9.354 13.035,-13.035 7.952,0.173 0,22.221 L 68.802,5.164 C 65.405,-13.985 48.702,-28.535 28.591,-28.59 L 0,0 Z"
         style="fill:#585858;fill-opacity:1;fill-rule:nonzero;stroke:none"
         id="path3603" />
    </g>
    <g
       id="g3605"
       transform="matrix(7.0566147,0,0,-6.7331565,440.92902,868.27404)">
      <path
         d="m 0,0 c 0,-1.183 0.959,-2.142 2.142,-2.142 l 6.877,0 c 1.183,0 2.143,0.959 2.143,2.142 l 0,21.603 c 0,1.184 -0.96,2.143 -2.143,2.143 l -6.877,0 C 0.959,23.746 0,22.787 0,21.603 L 0,0 Z"
         style="fill:#3d3d3b;fill-opacity:1;fill-rule:nonzero;stroke:none"
         id="path3607" />
    </g>
    <g
       id="g3609"
       transform="matrix(7.0566147,0,0,-6.7331565,376.93122,868.27404)">
      <path
         d="m 0,0 c 0,-1.183 0.96,-2.142 2.143,-2.142 l 1.402,0 c 1.183,0 2.143,0.959 2.143,2.142 l 0,21.603 c 0,1.184 -0.96,2.143 -2.143,2.143 l -1.402,0 C 0.96,23.746 0,22.787 0,21.603 L 0,0 Z"
         style="fill:#3d3d3b;fill-opacity:1;fill-rule:nonzero;stroke:none"
         id="path3611" />
    </g>
    <g
       id="g3613"
       transform="matrix(7.0566147,0,0,-6.7331565,800.10222,794.59774)">
      <path
         d="m 0,0 c 0,-0.549 -0.215,-1.05 -0.565,-1.42 l -18.702,-20.011 c -0.361,-0.373 -0.86,-0.613 -1.42,-0.613 -1.096,0 -1.984,0.889 -1.984,1.985 l -0.001,0 0,6.975 -11.538,0 c -1.183,0 -2.143,0.958 -2.143,2.142 l 0,21.885 c 0,1.183 0.96,2.142 2.143,2.142 l 11.538,0 0,6.975 0.001,0 c 0,1.096 0.888,1.984 1.984,1.984 0.56,0 1.059,-0.239 1.42,-0.613 L -0.565,1.421 C -0.215,1.05 0,0.55 0,0"
         style="fill:#3d3d3b;fill-opacity:1;fill-rule:nonzero;stroke:none"
         id="path3615" />
    </g>
  </g>
</svg>
