<?xml version="1.0" encoding="UTF-8" standalone="no"?>
<svg
   xmlns:dc="http://purl.org/dc/elements/1.1/"
   xmlns:cc="http://creativecommons.org/ns#"
   xmlns:rdf="http://www.w3.org/1999/02/22-rdf-syntax-ns#"
   xmlns:svg="http://www.w3.org/2000/svg"
   xmlns="http://www.w3.org/2000/svg"
   version="1.1"
   id="svg3524"
   viewBox="0 0 578.05738 551.55323"
   height="155.66058mm"
   width="163.14064mm">
  <defs
     id="defs3526" />
  <metadata
     id="metadata3529">
    <rdf:RDF>
      <cc:Work
         rdf:about="">
        <dc:format>image/svg+xml</dc:format>
        <dc:type
           rdf:resource="http://purl.org/dc/dcmitype/StillImage" />
        <dc:title></dc:title>
      </cc:Work>
    </rdf:RDF>
  </metadata>
  <g
     transform="translate(-91.195694,-564.75299)"
     id="layer1">
    <g
       id="g3637"
       transform="matrix(7.0566147,0,0,-6.7331565,669.2524,840.52961)">
      <path
         d="m 0,0 c 0,-22.62 -18.338,-40.958 -40.959,-40.958 -22.62,0 -40.958,18.338 -40.958,40.958 0,22.621 18.338,40.958 40.958,40.958 C -18.338,40.958 0,22.621 0,0"
         style="fill:#636363;fill-opacity:1;fill-rule:nonzero;stroke:none"
         id="path3639" />
    </g>
    <g
       id="g3641"
       transform="matrix(7.0566147,0,0,-6.7331565,544.61917,718.91741)">
      <path
         d="m 0,0 17.66,-17.659 0,-0.001 c 0.001,-0.133 0.002,-0.267 0.002,-0.402 0,-20.812 -15.525,-38 -35.625,-40.613 l -22.791,22.79 1.447,0.983 16.01,-9.134 16.067,10.547 8.045,14.026 L 0.489,-4.458 0,0 Z"
         style="fill:#585858;fill-opacity:1;fill-rule:nonzero;stroke:none"
         id="path3643" />
    </g>
    <g
       id="g3645"
       transform="matrix(7.0566147,0,0,-6.7331565,380.20852,729.33361)">
      <path
         d="m 0,0 c 1.615,1.734 3.489,3.068 5.651,3.963 3.558,1.474 7.223,1.982 10.944,0.754 4.513,-1.491 7.327,-4.738 8.962,-9.095 1.186,-3.164 1.277,-6.436 0.881,-9.746 -1.077,-9.003 -5.512,-16.132 -12.294,-21.938 -3.956,-3.387 -8.378,-6.021 -13.212,-7.946 -0.481,-0.191 -1.155,-0.282 -1.611,-0.098 -8.202,3.305 -15.208,8.217 -20.318,15.543 -4.017,5.761 -5.984,12.198 -5.601,19.222 0.271,4.958 2.294,9.161 6.356,12.2 2.412,1.805 5.169,2.601 8.185,2.499 C -7.345,5.199 -3.349,3.429 0,0 m -21.223,-21.093 c 0.055,-0.184 0.07,-0.277 0.109,-0.358 0.45,-0.936 0.848,-1.903 1.366,-2.8 4.51,-7.817 11.302,-12.952 19.461,-16.463 0.165,-0.072 0.42,-0.057 0.59,0.017 5.822,2.519 10.989,5.966 15.262,10.702 4.862,5.388 7.513,11.674 7.74,18.944 0.109,3.465 -0.768,6.641 -2.99,9.367 C 18.584,0.438 16.373,1.859 13.63,2.041 8.553,2.377 4.323,0.677 1.348,-3.633 0.694,-4.579 -0.741,-4.611 -1.353,-3.644 c -1.213,1.919 -2.887,3.307 -4.897,4.285 -2.663,1.297 -5.479,1.902 -8.415,1.234 -3.864,-0.88 -6.242,-3.483 -7.683,-7.037 -1.031,-2.544 -1.173,-5.212 -0.869,-7.905 0.177,-1.564 0.46,-3.114 0.697,-4.678 0.289,-0.015 0.461,-0.031 0.632,-0.031 2.391,-0.001 4.783,0.009 7.174,-0.011 0.407,-0.003 0.619,0.14 0.808,0.482 1.54,2.758 3.096,5.506 4.647,8.258 0.047,0.083 0.096,0.167 0.14,0.253 0.335,0.652 0.845,1.075 1.604,1.019 0.785,-0.058 1.29,-0.52 1.577,-1.252 1.933,-4.927 3.874,-9.85 5.812,-14.775 0.079,-0.201 0.169,-0.398 0.291,-0.687 1.075,2.148 2.14,4.176 3.106,6.249 0.451,0.965 1.116,1.336 2.134,1.319 1.754,-0.028 3.51,-0.002 5.264,-0.013 0.352,-0.003 0.582,0.076 0.813,0.387 0.71,0.959 1.719,1.343 2.889,1.247 1.502,-0.121 2.76,-1.29 2.987,-2.715 0.246,-1.548 -0.534,-2.994 -1.961,-3.635 -1.343,-0.601 -2.951,-0.208 -3.896,1 -0.228,0.293 -0.447,0.404 -0.811,0.399 -1.388,-0.021 -2.778,-0.025 -4.166,0.002 -0.412,0.009 -0.604,-0.135 -0.779,-0.5 -1.324,-2.758 -2.682,-5.502 -4.005,-8.262 -0.356,-0.743 -0.847,-1.277 -1.704,-1.231 -0.856,0.045 -1.366,0.574 -1.676,1.372 -1.944,4.984 -3.909,9.961 -5.868,14.939 -0.07,0.181 -0.153,0.358 -0.263,0.616 -0.16,-0.272 -0.26,-0.435 -0.355,-0.601 -1.187,-2.072 -2.382,-4.14 -3.554,-6.221 -0.359,-0.637 -0.868,-0.954 -1.59,-0.954 -1.06,0 -2.121,-10e-4 -3.182,-0.002 l -4.771,0 z"
         style="fill:#3d3d3b;fill-opacity:1;fill-rule:nonzero;stroke:none"
         id="path3647" />
    </g>
    <g
       id="g3649"
       transform="matrix(7.0566147,0,0,-6.7331565,380.20852,729.33361)">
      <path
         d="m 0,0 c 1.615,1.734 3.489,3.068 5.651,3.963 3.558,1.474 7.223,1.982 10.944,0.754 4.513,-1.491 7.327,-4.738 8.962,-9.095 1.186,-3.164 1.277,-6.436 0.881,-9.746 -1.077,-9.003 -5.512,-16.132 -12.294,-21.938 -3.956,-3.387 -8.378,-6.021 -13.212,-7.946 -0.481,-0.191 -1.155,-0.282 -1.611,-0.098 -8.202,3.305 -15.208,8.217 -20.318,15.543 -4.017,5.761 -5.984,12.198 -5.601,19.222 0.271,4.958 2.294,9.161 6.356,12.2 2.412,1.805 5.169,2.601 8.185,2.499 C -7.345,5.199 -3.349,3.429 0,0 Z m -21.223,-21.093 c 0.055,-0.184 0.07,-0.277 0.109,-0.358 0.45,-0.936 0.848,-1.903 1.366,-2.8 4.51,-7.817 11.302,-12.952 19.461,-16.463 0.165,-0.072 0.42,-0.057 0.59,0.017 5.822,2.519 10.989,5.966 15.262,10.702 4.862,5.388 7.513,11.674 7.74,18.944 0.109,3.465 -0.768,6.641 -2.99,9.367 C 18.584,0.438 16.373,1.859 13.63,2.041 8.553,2.377 4.323,0.677 1.348,-3.633 0.694,-4.579 -0.741,-4.611 -1.353,-3.644 c -1.213,1.919 -2.887,3.307 -4.897,4.285 -2.663,1.297 -5.479,1.902 -8.415,1.234 -3.864,-0.88 -6.242,-3.483 -7.683,-7.037 -1.031,-2.544 -1.173,-5.212 -0.869,-7.905 0.177,-1.564 0.46,-3.114 0.697,-4.678 0.289,-0.015 0.461,-0.031 0.632,-0.031 2.391,-0.001 4.783,0.009 7.174,-0.011 0.407,-0.003 0.619,0.14 0.808,0.482 1.54,2.758 3.096,5.506 4.647,8.258 0.047,0.083 0.096,0.167 0.14,0.253 0.335,0.652 0.845,1.075 1.604,1.019 0.785,-0.058 1.29,-0.52 1.577,-1.252 1.933,-4.927 3.874,-9.85 5.812,-14.775 0.079,-0.201 0.169,-0.398 0.291,-0.687 1.075,2.148 2.14,4.176 3.106,6.249 0.451,0.965 1.116,1.336 2.134,1.319 1.754,-0.028 3.51,-0.002 5.264,-0.013 0.352,-0.003 0.582,0.076 0.813,0.387 0.71,0.959 1.719,1.343 2.889,1.247 1.502,-0.121 2.76,-1.29 2.987,-2.715 0.246,-1.548 -0.534,-2.994 -1.961,-3.635 -1.343,-0.601 -2.951,-0.208 -3.896,1 -0.228,0.293 -0.447,0.404 -0.811,0.399 -1.388,-0.021 -2.778,-0.025 -4.166,0.002 -0.412,0.009 -0.604,-0.135 -0.779,-0.5 -1.324,-2.758 -2.682,-5.502 -4.005,-8.262 -0.356,-0.743 -0.847,-1.277 -1.704,-1.231 -0.856,0.045 -1.366,0.574 -1.676,1.372 -1.944,4.984 -3.909,9.961 -5.868,14.939 -0.07,0.181 -0.153,0.358 -0.263,0.616 -0.16,-0.272 -0.26,-0.435 -0.355,-0.601 -1.187,-2.072 -2.382,-4.14 -3.554,-6.221 -0.359,-0.637 -0.868,-0.954 -1.59,-0.954 -1.06,0 -2.121,-10e-4 -3.182,-0.002 l -4.771,0 z"
         style="fill:none;stroke:#3d3d3b;stroke-width:2;stroke-linecap:butt;stroke-linejoin:miter;stroke-miterlimit:10;stroke-dasharray:none;stroke-opacity:1"
         id="path3651" />
    </g>
  </g>
</svg>
