<?xml version="1.0" encoding="UTF-8" standalone="no"?>
<svg
   xmlns:dc="http://purl.org/dc/elements/1.1/"
   xmlns:cc="http://creativecommons.org/ns#"
   xmlns:rdf="http://www.w3.org/1999/02/22-rdf-syntax-ns#"
   xmlns:svg="http://www.w3.org/2000/svg"
   xmlns="http://www.w3.org/2000/svg"
   version="1.1"
   id="svg3524"
   viewBox="0 0 578.05739 551.55324"
   height="155.66058mm"
   width="163.14064mm">
  <defs
     id="defs3526" />
  <metadata
     id="metadata3529">
    <rdf:RDF>
      <cc:Work
         rdf:about="">
        <dc:format>image/svg+xml</dc:format>
        <dc:type
           rdf:resource="http://purl.org/dc/dcmitype/StillImage" />
        <dc:title></dc:title>
      </cc:Work>
    </rdf:RDF>
  </metadata>
  <g
     transform="translate(-372.53886,-398.87773)"
     id="layer1">
    <g
       id="g3745"
       transform="matrix(7.0566147,0,0,-6.7331565,950.59554,674.65435)">
      <path
         d="m 0,0 c 0,-22.62 -18.338,-40.958 -40.959,-40.958 -22.62,0 -40.958,18.338 -40.958,40.958 0,22.621 18.338,40.958 40.958,40.958 C -18.338,40.958 0,22.621 0,0"
         style="fill:#d65400;fill-opacity:1;fill-rule:nonzero;stroke:none"
         id="path3747" />
    </g>
    <g
       id="g3749"
       transform="matrix(7.0566147,0,0,-6.7331565,825.96231,553.04143)">
      <path
         d="m 0,0 17.66,-17.66 0,0 c 0.001,-0.134 0.002,-0.268 0.002,-0.402 0,-20.812 -15.525,-38.001 -35.625,-40.614 l -22.791,22.791 1.447,0.982 16.01,-9.133 16.067,10.547 8.045,14.026 L 0.489,-4.458 0,0 Z"
         style="fill:#a13d00;fill-opacity:1;fill-rule:nonzero;stroke:none"
         id="path3751" />
    </g>
    <g
       id="g3753"
       transform="matrix(7.0566147,0,0,-6.7331565,668.45867,570.04601)">
      <path
         d="m 0,0 c 1.615,1.733 3.489,3.067 5.651,3.963 3.558,1.473 7.223,1.981 10.944,0.752 4.513,-1.489 7.327,-4.736 8.961,-9.094 1.187,-3.163 1.278,-6.435 0.882,-9.746 -1.078,-9.003 -5.512,-16.131 -12.294,-21.937 -3.956,-3.387 -8.378,-6.021 -13.212,-7.946 -0.482,-0.192 -1.156,-0.282 -1.611,-0.098 -8.202,3.305 -15.208,8.216 -20.318,15.543 -4.017,5.76 -5.984,12.197 -5.601,19.221 0.271,4.958 2.294,9.162 6.356,12.201 2.412,1.804 5.169,2.6 8.185,2.499 C -7.345,5.199 -3.349,3.428 0,0 m -21.223,-21.094 c 0.055,-0.183 0.07,-0.276 0.109,-0.358 0.45,-0.936 0.848,-1.902 1.366,-2.8 4.51,-7.816 11.302,-12.951 19.461,-16.463 0.165,-0.071 0.42,-0.056 0.59,0.018 5.822,2.519 10.989,5.966 15.262,10.701 4.862,5.389 7.513,11.675 7.74,18.945 0.109,3.465 -0.768,6.641 -2.991,9.366 C 18.584,0.437 16.373,1.858 13.63,2.04 8.552,2.376 4.323,0.676 1.348,-3.634 0.694,-4.579 -0.741,-4.612 -1.353,-3.644 -2.566,-1.726 -4.24,-0.338 -6.25,0.64 c -2.664,1.297 -5.48,1.903 -8.416,1.234 -3.863,-0.88 -6.241,-3.483 -7.682,-7.037 -1.031,-2.544 -1.173,-5.211 -0.869,-7.904 0.177,-1.563 0.46,-3.115 0.696,-4.679 0.29,-0.014 0.462,-0.031 0.633,-0.031 2.391,-10e-4 4.783,0.01 7.174,-0.011 0.407,-0.004 0.618,0.14 0.808,0.482 1.54,2.759 3.096,5.507 4.647,8.258 0.047,0.084 0.096,0.168 0.139,0.253 0.336,0.653 0.845,1.075 1.604,1.02 0.786,-0.058 1.291,-0.52 1.578,-1.253 1.933,-4.927 3.873,-9.851 5.812,-14.775 0.079,-0.201 0.168,-0.398 0.291,-0.687 1.075,2.148 2.139,4.176 3.106,6.249 0.45,0.965 1.116,1.335 2.133,1.32 1.755,-0.029 3.511,-0.002 5.265,-0.014 0.351,-0.002 0.582,0.076 0.812,0.387 0.711,0.959 1.72,1.344 2.89,1.248 1.502,-0.122 2.76,-1.29 2.987,-2.715 0.246,-1.548 -0.534,-2.994 -1.961,-3.635 -1.343,-0.602 -2.951,-0.208 -3.896,1 -0.228,0.292 -0.447,0.404 -0.811,0.398 -1.388,-0.02 -2.778,-0.025 -4.166,0.003 -0.412,0.008 -0.604,-0.136 -0.779,-0.499 -1.324,-2.761 -2.682,-5.504 -4.005,-8.263 -0.356,-0.743 -0.847,-1.278 -1.704,-1.233 -0.856,0.046 -1.366,0.576 -1.677,1.374 -1.943,4.984 -3.908,9.96 -5.867,14.938 -0.071,0.181 -0.153,0.358 -0.263,0.616 -0.16,-0.271 -0.26,-0.435 -0.355,-0.601 -1.187,-2.072 -2.383,-4.139 -3.554,-6.22 -0.359,-0.637 -0.868,-0.955 -1.59,-0.955 -1.06,0 -2.121,-0.001 -3.182,-0.001 -1.561,-0.001 -3.121,-0.001 -4.771,-0.001"
         style="fill:#3d3d3b;fill-opacity:1;fill-rule:nonzero;stroke:none"
         id="path3755" />
    </g>
    <g
       id="g3757"
       transform="matrix(7.0566147,0,0,-6.7331565,668.45867,570.04601)">
      <path
         d="m 0,0 c 1.615,1.733 3.489,3.067 5.651,3.963 3.558,1.473 7.223,1.981 10.944,0.752 4.513,-1.489 7.327,-4.736 8.961,-9.094 1.187,-3.163 1.278,-6.435 0.882,-9.746 -1.078,-9.003 -5.512,-16.131 -12.294,-21.937 -3.956,-3.387 -8.378,-6.021 -13.212,-7.946 -0.482,-0.192 -1.156,-0.282 -1.611,-0.098 -8.202,3.305 -15.208,8.216 -20.318,15.543 -4.017,5.76 -5.984,12.197 -5.601,19.221 0.271,4.958 2.294,9.162 6.356,12.201 2.412,1.804 5.169,2.6 8.185,2.499 C -7.345,5.199 -3.349,3.428 0,0 Z m -21.223,-21.094 c 0.055,-0.183 0.07,-0.276 0.109,-0.358 0.45,-0.936 0.848,-1.902 1.366,-2.8 4.51,-7.816 11.302,-12.951 19.461,-16.463 0.165,-0.071 0.42,-0.056 0.59,0.018 5.822,2.519 10.989,5.966 15.262,10.701 4.862,5.389 7.513,11.675 7.74,18.945 0.109,3.465 -0.768,6.641 -2.991,9.366 C 18.584,0.437 16.373,1.858 13.63,2.04 8.552,2.376 4.323,0.676 1.348,-3.634 0.694,-4.579 -0.741,-4.612 -1.353,-3.644 -2.566,-1.726 -4.24,-0.338 -6.25,0.64 c -2.664,1.297 -5.48,1.903 -8.416,1.234 -3.863,-0.88 -6.241,-3.483 -7.682,-7.037 -1.031,-2.544 -1.173,-5.211 -0.869,-7.904 0.177,-1.563 0.46,-3.115 0.696,-4.679 0.29,-0.014 0.462,-0.031 0.633,-0.031 2.391,-10e-4 4.783,0.01 7.174,-0.011 0.407,-0.004 0.618,0.14 0.808,0.482 1.54,2.759 3.096,5.507 4.647,8.258 0.047,0.084 0.096,0.168 0.139,0.253 0.336,0.653 0.845,1.075 1.604,1.02 0.786,-0.058 1.291,-0.52 1.578,-1.253 1.933,-4.927 3.873,-9.851 5.812,-14.775 0.079,-0.201 0.168,-0.398 0.291,-0.687 1.075,2.148 2.139,4.176 3.106,6.249 0.45,0.965 1.116,1.335 2.133,1.32 1.755,-0.029 3.511,-0.002 5.265,-0.014 0.351,-0.002 0.582,0.076 0.812,0.387 0.711,0.959 1.72,1.344 2.89,1.248 1.502,-0.122 2.76,-1.29 2.987,-2.715 0.246,-1.548 -0.534,-2.994 -1.961,-3.635 -1.343,-0.602 -2.951,-0.208 -3.896,1 -0.228,0.292 -0.447,0.404 -0.811,0.398 -1.388,-0.02 -2.778,-0.025 -4.166,0.003 -0.412,0.008 -0.604,-0.136 -0.779,-0.499 -1.324,-2.761 -2.682,-5.504 -4.005,-8.263 -0.356,-0.743 -0.847,-1.278 -1.704,-1.233 -0.856,0.046 -1.366,0.576 -1.677,1.374 -1.943,4.984 -3.908,9.96 -5.867,14.938 -0.071,0.181 -0.153,0.358 -0.263,0.616 -0.16,-0.271 -0.26,-0.435 -0.355,-0.601 -1.187,-2.072 -2.383,-4.139 -3.554,-6.22 -0.359,-0.637 -0.868,-0.955 -1.59,-0.955 -1.06,0 -2.121,-0.001 -3.182,-0.001 -1.561,-0.001 -3.121,-0.001 -4.771,-0.001 z"
         style="fill:none;stroke:#3d3d3b;stroke-width:2;stroke-linecap:butt;stroke-linejoin:miter;stroke-miterlimit:10;stroke-dasharray:none;stroke-opacity:1"
         id="path3759" />
    </g>
    <g
       id="g3761"
       transform="matrix(7.0566147,0,0,-6.7331565,661.55165,563.45829)">
      <path
         d="m 0,0 c 1.615,1.733 3.489,3.067 5.651,3.963 3.558,1.474 7.223,1.981 10.944,0.753 4.513,-1.49 7.327,-4.737 8.962,-9.094 1.186,-3.165 1.277,-6.436 0.881,-9.747 -1.077,-9.003 -5.512,-16.131 -12.294,-21.937 -3.956,-3.387 -8.378,-6.021 -13.212,-7.946 -0.481,-0.191 -1.155,-0.282 -1.611,-0.098 -8.202,3.305 -15.208,8.216 -20.318,15.543 -4.017,5.76 -5.984,12.198 -5.601,19.221 0.271,4.958 2.294,9.162 6.356,12.201 2.412,1.805 5.169,2.601 8.185,2.499 C -7.345,5.199 -3.349,3.429 0,0 m -21.223,-21.093 c 0.055,-0.184 0.07,-0.277 0.109,-0.358 0.45,-0.936 0.848,-1.903 1.366,-2.801 4.51,-7.816 11.302,-12.951 19.461,-16.462 0.165,-0.072 0.42,-0.057 0.59,0.017 5.822,2.519 10.989,5.966 15.262,10.701 4.862,5.389 7.513,11.675 7.74,18.945 0.109,3.465 -0.768,6.641 -2.99,9.367 C 18.584,0.437 16.373,1.859 13.63,2.04 8.553,2.377 4.323,0.676 1.348,-3.634 c -0.654,-0.945 -2.089,-0.978 -2.701,-0.01 -1.213,1.919 -2.887,3.306 -4.897,4.285 -2.663,1.297 -5.479,1.902 -8.415,1.234 -3.864,-0.881 -6.242,-3.483 -7.683,-7.037 -1.031,-2.545 -1.173,-5.212 -0.869,-7.905 0.177,-1.564 0.46,-3.115 0.697,-4.679 0.289,-0.014 0.461,-0.03 0.632,-0.03 2.391,-0.002 4.783,0.009 7.174,-0.012 0.407,-0.003 0.619,0.141 0.808,0.482 1.54,2.759 3.096,5.507 4.647,8.258 0.047,0.084 0.096,0.168 0.14,0.253 0.335,0.653 0.845,1.075 1.604,1.02 0.785,-0.058 1.29,-0.52 1.577,-1.253 1.933,-4.926 3.874,-9.85 5.812,-14.774 0.079,-0.202 0.169,-0.399 0.291,-0.687 1.075,2.147 2.14,4.175 3.106,6.249 0.451,0.965 1.116,1.335 2.134,1.319 1.754,-0.029 3.51,-0.002 5.264,-0.013 0.352,-0.003 0.582,0.075 0.813,0.386 0.71,0.96 1.719,1.344 2.889,1.248 1.502,-0.122 2.76,-1.29 2.987,-2.716 0.246,-1.547 -0.534,-2.993 -1.961,-3.634 -1.343,-0.602 -2.951,-0.208 -3.896,1 -0.228,0.293 -0.447,0.404 -0.811,0.399 -1.388,-0.021 -2.778,-0.026 -4.166,0.002 -0.412,0.008 -0.604,-0.135 -0.779,-0.5 -1.324,-2.759 -2.682,-5.502 -4.005,-8.262 -0.356,-0.743 -0.847,-1.277 -1.704,-1.232 -0.856,0.045 -1.366,0.575 -1.676,1.372 -1.944,4.985 -3.909,9.961 -5.868,14.939 -0.07,0.182 -0.153,0.359 -0.263,0.616 -0.16,-0.271 -0.26,-0.434 -0.355,-0.6 -1.187,-2.073 -2.382,-4.14 -3.554,-6.221 -0.359,-0.637 -0.868,-0.955 -1.59,-0.955 -1.06,0 -2.121,-0.001 -3.182,-0.001 -1.56,-0.001 -3.121,0 -4.771,0"
         style="fill:#ffffff;fill-opacity:1;fill-rule:nonzero;stroke:none"
         id="path3763" />
    </g>
    <g
       id="g3765"
       transform="matrix(7.0566147,0,0,-6.7331565,661.55165,563.45829)">
      <path
         d="m 0,0 c 1.615,1.733 3.489,3.067 5.651,3.963 3.558,1.474 7.223,1.981 10.944,0.753 4.513,-1.49 7.327,-4.737 8.962,-9.094 1.186,-3.165 1.277,-6.436 0.881,-9.747 -1.077,-9.003 -5.512,-16.131 -12.294,-21.937 -3.956,-3.387 -8.378,-6.021 -13.212,-7.946 -0.481,-0.191 -1.155,-0.282 -1.611,-0.098 -8.202,3.305 -15.208,8.216 -20.318,15.543 -4.017,5.76 -5.984,12.198 -5.601,19.221 0.271,4.958 2.294,9.162 6.356,12.201 2.412,1.805 5.169,2.601 8.185,2.499 C -7.345,5.199 -3.349,3.429 0,0 Z m -21.223,-21.093 c 0.055,-0.184 0.07,-0.277 0.109,-0.358 0.45,-0.936 0.848,-1.903 1.366,-2.801 4.51,-7.816 11.302,-12.951 19.461,-16.462 0.165,-0.072 0.42,-0.057 0.59,0.017 5.822,2.519 10.989,5.966 15.262,10.701 4.862,5.389 7.513,11.675 7.74,18.945 0.109,3.465 -0.768,6.641 -2.99,9.367 C 18.584,0.437 16.373,1.859 13.63,2.04 8.553,2.377 4.323,0.676 1.348,-3.634 c -0.654,-0.945 -2.089,-0.978 -2.701,-0.01 -1.213,1.919 -2.887,3.306 -4.897,4.285 -2.663,1.297 -5.479,1.902 -8.415,1.234 -3.864,-0.881 -6.242,-3.483 -7.683,-7.037 -1.031,-2.545 -1.173,-5.212 -0.869,-7.905 0.177,-1.564 0.46,-3.115 0.697,-4.679 0.289,-0.014 0.461,-0.03 0.632,-0.03 2.391,-0.002 4.783,0.009 7.174,-0.012 0.407,-0.003 0.619,0.141 0.808,0.482 1.54,2.759 3.096,5.507 4.647,8.258 0.047,0.084 0.096,0.168 0.14,0.253 0.335,0.653 0.845,1.075 1.604,1.02 0.785,-0.058 1.29,-0.52 1.577,-1.253 1.933,-4.926 3.874,-9.85 5.812,-14.774 0.079,-0.202 0.169,-0.399 0.291,-0.687 1.075,2.147 2.14,4.175 3.106,6.249 0.451,0.965 1.116,1.335 2.134,1.319 1.754,-0.029 3.51,-0.002 5.264,-0.013 0.352,-0.003 0.582,0.075 0.813,0.386 0.71,0.96 1.719,1.344 2.889,1.248 1.502,-0.122 2.76,-1.29 2.987,-2.716 0.246,-1.547 -0.534,-2.993 -1.961,-3.634 -1.343,-0.602 -2.951,-0.208 -3.896,1 -0.228,0.293 -0.447,0.404 -0.811,0.399 -1.388,-0.021 -2.778,-0.026 -4.166,0.002 -0.412,0.008 -0.604,-0.135 -0.779,-0.5 -1.324,-2.759 -2.682,-5.502 -4.005,-8.262 -0.356,-0.743 -0.847,-1.277 -1.704,-1.232 -0.856,0.045 -1.366,0.575 -1.676,1.372 -1.944,4.985 -3.909,9.961 -5.868,14.939 -0.07,0.182 -0.153,0.359 -0.263,0.616 -0.16,-0.271 -0.26,-0.434 -0.355,-0.6 -1.187,-2.073 -2.382,-4.14 -3.554,-6.221 -0.359,-0.637 -0.868,-0.955 -1.59,-0.955 -1.06,0 -2.121,-0.001 -3.182,-0.001 -1.56,-0.001 -3.121,0 -4.771,0 z"
         style="fill:none;stroke:#ffffff;stroke-width:2;stroke-linecap:butt;stroke-linejoin:miter;stroke-miterlimit:10;stroke-dasharray:none;stroke-opacity:1"
         id="path3767" />
    </g>
  </g>
</svg>
