<?xml version="1.0" encoding="UTF-8" standalone="no"?>
<svg
   xmlns:dc="http://purl.org/dc/elements/1.1/"
   xmlns:cc="http://creativecommons.org/ns#"
   xmlns:rdf="http://www.w3.org/1999/02/22-rdf-syntax-ns#"
   xmlns:svg="http://www.w3.org/2000/svg"
   xmlns="http://www.w3.org/2000/svg"
   version="1.1"
   id="svg3524"
   viewBox="0 0 579.72204 553.14901"
   height="156.11095mm"
   width="163.61044mm">
  <defs
     id="defs3526" />
  <metadata
     id="metadata3529">
    <rdf:RDF>
      <cc:Work
         rdf:about="">
        <dc:format>image/svg+xml</dc:format>
        <dc:type
           rdf:resource="http://purl.org/dc/dcmitype/StillImage" />
        <dc:title></dc:title>
      </cc:Work>
    </rdf:RDF>
  </metadata>
  <g
     transform="translate(12.771707,-545.09517)"
     id="layer1">
    <g
       id="g3581"
       transform="matrix(7.0566147,0,0,-6.7331565,566.95036,821.66628)">
      <path
         d="m 0,0 c 0,-22.686 -18.39,-41.077 -41.077,-41.077 -22.686,0 -41.076,18.391 -41.076,41.077 0,22.686 18.39,41.076 41.076,41.076 C -18.39,41.076 0,22.686 0,0"
         style="fill:#73d6ff;fill-opacity:1;fill-rule:nonzero;stroke:none"
         id="path3583" />
    </g>
    <g
       id="g3585"
       transform="matrix(7.0566147,0,0,-6.7331565,552.00939,909.55484)">
      <path
         d="m 0,0 c -5.066,-15.126 -18.694,-26.328 -35.129,-27.848 l -18.509,18.51 1.243,1.129 -15.476,15.477 10.733,4.586 9.173,-9.173 10.204,32.743 15.173,-15.173 0.657,1.352 L -9.936,9.608 -9.688,9.686 -0.001,0 0,0 Z"
         style="fill:#57a1bf;fill-opacity:1;fill-rule:nonzero;stroke:none"
         id="path3587" />
    </g>
    <g
       id="g3589"
       transform="matrix(7.0566147,0,0,-6.7331565,139.62926,829.41008)">
      <path
         d="m 0,0 c 1.199,0 2.235,-0.689 2.733,-1.695 0,0 3.94,-9.718 4.283,-9.718 0.344,0 9.214,32.695 9.214,32.695 0.283,1.387 1.512,2.436 2.988,2.436 1.474,0 2.705,-1.044 2.988,-2.438 0,0 6.392,-24.762 6.774,-24.762 0.381,0 3.413,10.637 3.413,10.637 0.278,1.398 1.511,2.454 2.993,2.454 1.435,0 2.638,-0.991 2.965,-2.326 0,0 3.136,-9.025 3.364,-9.038 0.23,-0.011 5.339,0 5.339,0 1.685,0 3.051,-1.365 3.051,-3.05 0,-1.685 -1.366,-3.05 -3.051,-3.05 l -6.673,0 c -1.263,0 -2.347,0.77 -2.81,1.863 0,0 -1.88,5.179 -2.185,5.179 -0.305,0 -3.941,-13.101 -3.941,-13.101 -0.441,-1.141 -1.55,-1.949 -2.847,-1.949 -1.315,0 -2.437,0.832 -2.864,2 0,0 -6.287,24.452 -6.516,24.452 -0.229,0 -8.751,-31.457 -8.751,-31.457 -0.446,-1.131 -1.549,-1.935 -2.841,-1.935 -1.199,0 -2.233,0.689 -2.733,1.692 0,0 -6.152,15.01 -6.456,15.01 l -5.148,0 c -1.685,0 -3.05,1.366 -3.05,3.05 0,1.685 1.365,3.051 3.05,3.051 L 0,0 Z"
         style="fill:#3d3d3b;fill-opacity:1;fill-rule:nonzero;stroke:none"
         id="path3591" />
    </g>
    <g
       id="g3593"
       transform="matrix(7.0566147,0,0,-6.7331565,134.74256,824.75074)">
      <path
         d="m 0,0 c 1.199,0 2.235,-0.689 2.733,-1.694 0,0 3.94,-9.719 4.283,-9.719 0.343,0 9.214,32.695 9.214,32.695 0.283,1.387 1.513,2.436 2.988,2.436 1.474,0 2.705,-1.044 2.988,-2.438 0,0 6.393,-24.762 6.775,-24.762 0.38,0 3.412,10.637 3.412,10.637 0.279,1.398 1.512,2.454 2.993,2.454 1.435,0 2.639,-0.991 2.965,-2.325 0,0 3.136,-9.026 3.365,-9.038 0.229,-0.012 5.338,0 5.338,0 1.685,0 3.051,-1.366 3.051,-3.05 0,-1.686 -1.366,-3.051 -3.051,-3.051 l -6.673,0 c -1.263,0 -2.347,0.77 -2.81,1.863 0,0 -1.88,5.179 -2.185,5.179 -0.305,0 -3.941,-13.1 -3.941,-13.1 -0.441,-1.142 -1.55,-1.95 -2.846,-1.95 -1.316,0 -2.438,0.832 -2.865,2 0,0 -6.287,24.452 -6.516,24.452 -0.229,0 -8.751,-31.457 -8.751,-31.457 -0.445,-1.131 -1.549,-1.934 -2.84,-1.934 -1.199,0 -2.234,0.688 -2.734,1.691 0,0 -6.152,15.01 -6.456,15.01 l -5.148,0 c -1.685,0 -3.05,1.366 -3.05,3.05 0,1.686 1.365,3.051 3.05,3.051 L 0,0 Z"
         style="fill:#ffffff;fill-opacity:1;fill-rule:nonzero;stroke:none"
         id="path3595" />
    </g>
  </g>
</svg>
