<?xml version="1.0" encoding="UTF-8" standalone="no"?>
<svg
   xmlns:dc="http://purl.org/dc/elements/1.1/"
   xmlns:cc="http://creativecommons.org/ns#"
   xmlns:rdf="http://www.w3.org/1999/02/22-rdf-syntax-ns#"
   xmlns:svg="http://www.w3.org/2000/svg"
   xmlns="http://www.w3.org/2000/svg"
   version="1.1"
   id="svg3524"
   viewBox="0 0 579.72204 553.14225"
   height="156.10904mm"
   width="163.61044mm">
  <defs
     id="defs3526" />
  <metadata
     id="metadata3529">
    <rdf:RDF>
      <cc:Work
         rdf:about="">
        <dc:format>image/svg+xml</dc:format>
        <dc:type
           rdf:resource="http://purl.org/dc/dcmitype/StillImage" />
        <dc:title></dc:title>
      </cc:Work>
    </rdf:RDF>
  </metadata>
  <g
     transform="translate(-249.90606,-325.44938)"
     id="layer1">
    <g
       id="g3669"
       transform="matrix(7.0566147,0,0,-6.7331565,829.62813,602.02052)">
      <path
         d="m 0,0 c 0,-22.686 -18.39,-41.076 -41.077,-41.076 -22.686,0 -41.076,18.39 -41.076,41.076 0,22.686 18.39,41.076 41.076,41.076 C -18.39,41.076 0,22.686 0,0"
         style="fill:#636363;fill-opacity:1;fill-rule:nonzero;stroke:none"
         id="path3671" />
    </g>
    <g
       id="g3673"
       transform="matrix(7.0566147,0,0,-6.7331565,824.68921,689.90842)">
      <path
         d="M -1.2084617,0.73479239 C -6.2744617,-14.391208 -18.694,-26.327 -35.128,-27.847 l -10e-4,0 -18.509,18.509 1.244,1.129 L -69.301497,7.4170266 -59.213671,12.379093 -47.965,2.681 -39.102193,35.331176 -22.588,20.251 -23.474638,21.682564 -9.935,9.608 -9.688,9.687 -1.2166658,0.74259376 Z"
         style="fill:#585858;fill-opacity:1;fill-rule:nonzero;stroke:none"
         id="path3675" />
    </g>
    <g
       id="g3677"
       transform="matrix(7.0566147,0,0,-6.7331565,397.41963,605.10362)">
      <path
         d="m 0,0 c 1.199,0 2.235,-0.688 2.733,-1.694 0,0 3.94,-9.718 4.283,-9.718 0.343,0 9.215,32.695 9.215,32.695 0.282,1.386 1.512,2.435 2.987,2.435 1.474,0 2.704,-1.044 2.988,-2.438 0,0 6.392,-24.761 6.774,-24.761 0.381,0 3.414,10.636 3.414,10.636 0.278,1.399 1.511,2.455 2.993,2.455 1.434,0 2.637,-0.992 2.964,-2.327 0,0 3.137,-9.025 3.365,-9.037 0.229,-0.012 5.339,0 5.339,0 1.685,0 3.051,-1.365 3.051,-3.05 0,-1.685 -1.366,-3.051 -3.051,-3.051 l -6.673,0 c -1.264,0 -2.348,0.77 -2.811,1.864 0,0 -1.88,5.179 -2.184,5.179 -0.306,0 -3.942,-13.101 -3.942,-13.101 -0.441,-1.141 -1.55,-1.95 -2.847,-1.95 -1.315,0 -2.437,0.832 -2.863,2 0,0 -6.288,24.452 -6.517,24.452 -0.229,0 -8.751,-31.457 -8.751,-31.457 -0.445,-1.131 -1.549,-1.934 -2.84,-1.934 -1.199,0 -2.234,0.688 -2.734,1.691 0,0 -6.152,15.011 -6.456,15.011 l -5.148,0 c -1.685,0 -3.05,1.365 -3.05,3.05 0,1.685 1.365,3.05 3.05,3.05 L 0,0 Z"
         style="fill:#3d3d3b;fill-opacity:1;fill-rule:nonzero;stroke:none"
         id="path3679" />
    </g>
  </g>
</svg>
