<?xml version="1.0" encoding="UTF-8" standalone="no"?>
<svg
   xmlns:dc="http://purl.org/dc/elements/1.1/"
   xmlns:cc="http://creativecommons.org/ns#"
   xmlns:rdf="http://www.w3.org/1999/02/22-rdf-syntax-ns#"
   xmlns:svg="http://www.w3.org/2000/svg"
   xmlns="http://www.w3.org/2000/svg"
   version="1.1"
   id="svg3524"
   viewBox="0 0 578.04966 551.55324"
   height="155.66058mm"
   width="163.13846mm">
  <defs
     id="defs3526" />
  <metadata
     id="metadata3529">
    <rdf:RDF>
      <cc:Work
         rdf:about="">
        <dc:format>image/svg+xml</dc:format>
        <dc:type
           rdf:resource="http://purl.org/dc/dcmitype/StillImage" />
        <dc:title></dc:title>
      </cc:Work>
    </rdf:RDF>
  </metadata>
  <g
     transform="translate(-354.68944,-262.90779)"
     id="layer1">
    <g
       id="g3501"
       transform="matrix(7.0566147,0,0,-6.7331565,932.73909,538.68441)">
      <path
         d="m 0,0 c 0,-22.621 -18.337,-40.958 -40.958,-40.958 -22.621,0 -40.958,18.337 -40.958,40.958 0,22.62 18.337,40.958 40.958,40.958 C -18.337,40.958 0,22.62 0,0"
         style="fill:#73d6ff;fill-opacity:1;fill-rule:nonzero;stroke:none"
         id="path3503" />
    </g>
    <g
       id="g3505"
       transform="matrix(7.0566147,0,0,-6.7331565,582.3323,429.98837)">
      <path
         d="m 0,0 26.115,-26.096 -5.973,-7.866 -30.348,30.348 0.208,-26.416 26.356,-26.357 0,0 c 10.043,1.9 18.789,7.466 24.795,15.253 4.378,5.677 7.299,12.534 8.204,20.013 l -10e-4,0 -22.447,22.448"
         style="fill:#57a1bf;fill-opacity:1;fill-rule:nonzero;stroke:none"
         id="path3507" />
    </g>
    <g
       id="g3509"
       transform="matrix(7.0566147,0,0,-6.7331565,499.99219,606.94381)">
      <path
         d="m 0,0 c -0.394,2.59 0.06,19.983 0.06,21.057 0,1.075 1.019,1.983 2.149,0.852 1.13,-1.13 13.61,-13.936 14.238,-15.063 l 0.001,0 c 0.933,-1.425 1.475,-3.128 1.475,-4.958 0,-5.003 -4.057,-9.06 -9.059,-9.06 C 4.508,-7.172 0.87,-4.097 0,0"
         style="fill:#3d3d3b;fill-opacity:1;fill-rule:nonzero;stroke:none"
         id="path3511" />
    </g>
    <g
       id="g3513"
       transform="matrix(7.0566147,0,0,-6.7331565,696.89714,659.99098)">
      <path
         d="m 0,0 c -0.694,1.757 -3.17,14.054 -3.343,14.811 -0.172,0.755 0.398,1.556 1.374,0.944 0.976,-0.613 11.805,-7.609 12.428,-8.3 l 0.001,0 C 11.345,6.604 12,5.493 12.294,4.208 13.098,0.691 10.899,-2.813 7.382,-3.616 4.321,-4.316 1.269,-2.74 0,0"
         style="fill:#3d3d3b;fill-opacity:1;fill-rule:nonzero;stroke:none"
         id="path3515" />
    </g>
    <g
       id="g3517"
       transform="matrix(7.0566147,0,0,-6.7331565,704.09489,524.34212)">
      <path
         d="m 0,0 c -2.27,1.31 -15.568,12.527 -16.408,13.199 -0.838,0.671 -0.911,2.034 0.677,2.21 1.589,0.177 19.384,1.924 20.657,1.71 L 4.927,17.12 C 6.622,16.959 8.291,16.319 9.72,15.176 13.628,12.051 14.262,6.349 11.136,2.442 8.416,-0.96 3.742,-1.881 0,0"
         style="fill:#3d3d3b;fill-opacity:1;fill-rule:nonzero;stroke:none"
         id="path3519" />
    </g>
    <g
       id="g3521"
       transform="matrix(7.0566147,0,0,-6.7331565,495.12524,602.29456)">
      <path
         d="m 0,0 c -0.395,2.59 0.059,19.982 0.059,21.057 0,1.074 1.019,1.983 2.15,0.852 1.13,-1.13 13.609,-13.936 14.237,-15.063 l 0.002,-0.001 c 0.932,-1.424 1.475,-3.127 1.475,-4.957 0,-5.004 -4.056,-9.06 -9.06,-9.06 C 4.507,-7.172 0.868,-4.097 0,0"
         style="fill:#ffffff;fill-opacity:1;fill-rule:nonzero;stroke:none"
         id="path3523" />
    </g>
    <g
       id="g3525"
       transform="matrix(7.0566147,0,0,-6.7331565,692.02526,655.34173)">
      <path
         d="m 0,0 c -0.694,1.757 -3.17,14.054 -3.343,14.81 -0.173,0.755 0.398,1.557 1.374,0.945 0.976,-0.613 11.806,-7.609 12.428,-8.3 l 0.001,0 C 11.345,6.604 12,5.493 12.293,4.207 13.098,0.69 10.899,-2.813 7.382,-3.617 4.32,-4.316 1.269,-2.74 0,0"
         style="fill:#ffffff;fill-opacity:1;fill-rule:nonzero;stroke:none"
         id="path3527" />
    </g>
    <g
       id="g3529"
       transform="matrix(7.0566147,0,0,-6.7331565,699.223,519.69624)">
      <path
         d="m 0,0 c -2.269,1.31 -15.568,12.527 -16.408,13.199 -0.838,0.671 -0.912,2.034 0.677,2.211 1.589,0.176 19.385,1.923 20.657,1.71 l 10e-4,0 C 6.623,16.96 8.292,16.319 9.72,15.177 13.628,12.052 14.262,6.349 11.136,2.443 8.416,-0.96 3.742,-1.88 0,0"
         style="fill:#ffffff;fill-opacity:1;fill-rule:nonzero;stroke:none"
         id="path3531" />
    </g>
  </g>
</svg>
