<?xml version="1.0" encoding="iso-8859-1"?>
<!-- Generator: Adobe Illustrator 13.0.2, SVG Export Plug-In . SVG Version: 6.00 Build 14948)  -->
<!DOCTYPE svg PUBLIC "-//W3C//DTD SVG 1.1//EN" "http://www.w3.org/Graphics/SVG/1.1/DTD/svg11.dtd">
<svg version="1.1"
	 id="Layer_1" inkscape:version="0.45+devel" xmlns:dc="http://purl.org/dc/elements/1.1/" sodipodi:docname="warning.svg" xmlns:svg="http://www.w3.org/2000/svg" xmlns:rdf="http://www.w3.org/1999/02/22-rdf-syntax-ns#" sodipodi:version="0.32" xmlns:sodipodi="http://sodipodi.sourceforge.net/DTD/sodipodi-0.dtd" xmlns:inkscape="http://www.inkscape.org/namespaces/inkscape" xmlns:cc="http://creativecommons.org/ns#" inkscape:output_extension="org.inkscape.output.svg.inkscape"
	 xmlns="http://www.w3.org/2000/svg" xmlns:xlink="http://www.w3.org/1999/xlink" x="0px" y="0px" width="141.734px"
	 height="141.732px" viewBox="0 0 141.734 141.732" style="enable-background:new 0 0 141.734 141.732;" xml:space="preserve">
<sodipodi:namedview  id="base" showgrid="false" inkscape:window-x="0" inkscape:window-y="0" inkscape:cy="70.866501" inkscape:pageopacity="0.0" bordercolor="#666666" inkscape:current-layer="Layer_1" inkscape:cx="70.866997" pagecolor="#ffffff" inkscape:zoom="3.0762066" borderopacity="1.0" inkscape:window-height="649" inkscape:window-width="640" inkscape:pageshadow="2" gridtolerance="10.0" objecttolerance="10.0" guidetolerance="10.0">
	</sodipodi:namedview>
<g id="g2399" transform="translate(-4.0317332e-8,4.6406635e-5)">
	<g id="g7" transform="translate(-11.519578,-11.519383)">
		<path id="path8" style="fill:#010101;" d="M84.462,153.221c39.122-1.146,69.907-33.791,68.761-72.911
			c-1.146-39.121-33.791-69.906-72.912-68.76c-39.12,1.147-69.906,33.792-68.76,72.912
			C12.697,123.583,45.342,154.369,84.462,153.221z"/>
		<path id="path9" style="fill:#405FAB;stroke:#FFFFFF;stroke-width:3;" d="M84.29,148.923
			c36.773-1.076,65.711-31.763,64.633-68.537c-1.075-36.773-31.762-65.712-68.537-64.634C43.612,16.829,14.674,47.515,15.752,84.29
			C16.83,121.063,47.515,150.001,84.29,148.923z"/>
	</g>
	<g id="g240" transform="translate(-11.519578,-11.519383)">
		<path id="path11" style="fill:#FFFFFF;" d="M89.016,45.666c3.039,2.839,1.215,8.427,1.196,12.446
			c-0.051,11.726-0.998,22.772-1.922,34.526c-0.121,1.556-1.635,3.146-3.332,3.851c-2.683,1.114-5.15-0.06-7.303-1.179
			c-1.911-0.993-2.574-5.606-2.887-7.567c-1.885-11.817-0.519-20.396-3.104-32.404c-0.729-3.392-0.563-7.499,1.468-10.231
			c2.538-3.412,8.729-6.123,11.796-3.258L89.016,45.666z"/>
		<path id="path243" style="fill:#FFFFFF;" d="M91.822,108.225c1.997,3.966,0.913,7.866-1.296,11.224
			c-1.948,2.959-6.084,3.502-9.702,3.104c-3.556-0.389-6.283-3.83-7.4-6.685c-1.095-2.8-0.891-5.646,0.309-8.244
			c1.576-3.417,6.073-5.695,10.463-5.065C87.708,103.064,90.309,105.223,91.822,108.225z"/>
	</g>
</g>
</svg>
